<svg xmlns="http://www.w3.org/2000/svg" width="183" height="176" viewBox="0 0 183 176" fill="none">
<path d="M94.1561 149.093C100.8 144.214 109.207 142.457 117.245 144.235" stroke="#1A1915" stroke-width="4.82884" stroke-linecap="round" stroke-linejoin="round"/>
<path d="M143.989 79.8663C158.005 44.7545 146.889 33.5732 124.644 30.8228C102.385 28.0797 69.0098 33.7952 47.3254 42.1012C25.641 50.4072 15.6819 61.3031 15.2646 68.72C14.8474 76.1368 23.9792 80.0884 36.0648 81.5211C48.1367 82.9611 63.1558 81.9032 75.4995 78.4313C87.8432 74.9594 97.5115 69.0733 98.9839 63.9006C100.449 58.7141 93.7045 54.2482 77.6822 55.6744C61.6525 57.0869 36.3384 64.4126 9.96489 85.071" stroke="#1A1915" stroke-width="4.82884" stroke-linecap="round" stroke-linejoin="round"/>
<path d="M59.24 90.3984C58.9819 106.531 58.5065 125.065 57.572 141.183C61.7066 135.651 65.8622 130.125 69.9968 124.593" stroke="#1A1915" stroke-width="4.82884" stroke-linecap="round" stroke-linejoin="round"/>
<path d="M32.0739 110.299C31.7573 108.927 31.6325 107.52 31.7141 106.16C31.7956 104.8 32.0909 103.501 32.5802 102.308C33.5664 99.9363 35.3968 98.0612 37.8432 97.5009C40.3244 96.9215 42.9452 97.7761 45.0781 99.7161C47.1844 101.635 48.5534 104.349 49.0947 107.092" stroke="#1A1915" stroke-width="4.82884" stroke-linecap="round" stroke-linejoin="round"/>
<path d="M77.5973 102.978C77.3153 101.622 77.241 100.223 77.3769 98.8509C77.5127 97.479 77.8513 96.1203 78.424 94.8641C78.9966 93.608 79.7896 92.462 80.8207 91.5231C81.8517 90.5841 83.0599 89.9034 84.4282 89.5792C85.7966 89.255 87.1795 89.3137 88.5198 89.7158C89.86 90.1179 91.0593 90.8461 92.0714 91.7837C94.1167 93.665 95.3891 96.3081 95.8471 98.9892" stroke="#1A1915" stroke-width="4.82884" stroke-linecap="round" stroke-linejoin="round"/>
<path d="M108.221 112.543C110.214 124.362 105.511 136.551 94.156 149.094" stroke="#1A1915" stroke-width="4.82884" stroke-linecap="round" stroke-linejoin="round"/>
<path d="M68.9057 143.054C82.9447 138.214 96.0501 128.043 108.237 112.536" stroke="#1A1915" stroke-width="4.82884" stroke-linecap="round" stroke-linejoin="round"/>
</svg>